<svg width="34" height="34" viewBox="0 0 34 34" fill="none" xmlns="http://www.w3.org/2000/svg">
<g id="24 / call / call-phone">
<path id="icon" fill-rule="evenodd" clip-rule="evenodd" d="M15.3802 11.8121C16.1142 10.823 16.3774 9.78052 15.5472 8.86035C13.6844 6.25372 12.4316 4.64178 11.6458 3.86551C10.1518 2.38972 7.6942 2.58934 6.40033 3.86425C5.70537 4.54901 5.4701 4.78416 4.75653 5.50894C0.781861 9.48575 3.20582 17.8926 9.64959 24.3427C16.0919 30.7913 24.4979 33.2166 28.4809 29.2314C29.1394 28.5966 29.6969 28.0388 30.1366 27.5741C31.4046 26.2339 31.5971 23.8847 30.1283 22.3585C29.3752 21.5761 27.8381 20.3837 25.1218 18.4407C24.2899 17.6968 23.3034 17.8581 22.3991 18.4514C21.9641 18.7368 21.6475 19.0255 21.0497 19.6238L19.9642 20.7099C19.8212 20.853 17.8799 19.8807 15.9953 17.9943C14.1097 16.1069 13.1381 14.1654 13.2804 14.0231C13.5739 13.7297 13.936 13.3674 14.3667 12.9363C14.5564 12.7464 14.647 12.6545 14.7633 12.5323C15.0056 12.2777 15.2062 12.0466 15.3802 11.8121ZM21.9666 22.7134L23.0523 21.6271C23.3813 21.2978 23.5945 21.0953 23.768 20.9557C26.1475 22.6645 27.5256 23.7389 28.0885 24.3238C28.4264 24.675 28.3739 25.3157 28.0801 25.6262C27.6735 26.056 27.1453 26.5845 26.4971 27.2097C23.9215 29.7864 17.136 27.8286 11.6524 22.3396C6.16708 16.8489 4.21029 10.0624 6.7664 7.50485C7.47709 6.78304 7.70226 6.55799 8.38729 5.883C8.64414 5.62992 9.34378 5.57309 9.65623 5.88174C10.2612 6.4794 11.3835 7.91639 13.0345 10.2161C12.949 10.3222 12.8422 10.4421 12.7123 10.5787C12.617 10.6789 12.5376 10.7594 12.3639 10.9332C11.9335 11.364 11.5718 11.726 11.2787 12.019C9.43259 13.865 11.0048 17.0068 13.9925 19.9974C16.9781 22.9859 20.1211 24.5599 21.9666 22.7134Z" fill="#47C66A"/>
</g>
</svg>
